<?xml version="1.0" standalone="no"?>
<!DOCTYPE svg PUBLIC "-//W3C//DTD SVG 20010904//EN" "http://www.w3.org/TR/2001/REC-SVG-20010904/DTD/svg10.dtd">
<svg xmlns="http://www.w3.org/2000/svg" version="1.0" width="1024.000000pt" height="1024.000000pt" viewBox="0 0 1024.000000 1024.000000" preserveAspectRatio="xMidYMid meet">
<metadata>
Created by potrace 1.16, written by Peter Selinger 2001-2019
<meta name="Producer" content="Online-Convert"/></metadata>
<g transform="translate(0.000000,1024.000000) scale(0.100000,-0.100000)" fill="#FFD700" stroke="none">
<path d="M3282 7779 c-118 -20 -270 -110 -395 -234 -147 -147 -257 -309 -452 -667 -133 -244 -227 -389 -282 -439 -21 -19 -79 -59 -128 -89 -155 -93 -344 -220 -413 -277 -331 -276 -528 -597 -599 -973 -27 -144 -24 -460 5 -593 30 -134 70 -250 140 -402 132 -287 141 -355 93 -710 -56 -418 -41 -487 121 -531 44 -11 133 -13 503 -8 524 8 505 4 505 89 0 29 -4 65 -10 79 -12 32 -73 72 -177 116 -43 19 -79 35 -81 36 -2 1 12 24 31 51 58 81 149 243 184 326 43 103 68 204 89 359 14 107 15 134 4 173 -16 55 -122 219 -215 330 -167 198 -245 373 -245 544 l0 66 41 -74 c44 -82 158 -254 224 -341 23 -30 101 -117 173 -192 136 -142 174 -192 237 -318 54 -107 304 -543 393 -685 84 -134 107 -181 116 -240 6 -37 5 -41 -25 -59 -34 -20 -53 -58 -70 -135 -13 -61 6 -106 49 -118 15 -5 189 -7 386 -6 394 2 411 4 454 62 30 41 45 91 147 501 157 629 214 928 236 1224 14 196 4 369 -36 595 -14 79 -24 145 -23 146 2 1 32 17 68 36 74 39 165 125 206 194 58 99 76 170 82 310 5 149 -8 218 -61 325 -18 36 -43 93 -56 126 -16 45 -39 79 -82 123 -51 54 -59 67 -59 100 0 30 8 49 35 81 42 50 49 74 43 144 -9 108 -87 211 -208 275 -100 53 -161 118 -247 262 -125 210 -204 294 -339 359 -104 51 -261 76 -362 59z m628 -833 c84 -14 125 -15 199 -8 106 11 151 3 187 -33 17 -17 24 -35 24 -64 0 -61 -30 -73 -163 -65 -84 6 -125 3 -221 -15 -114 -22 -119 -22 -196 -5 -100 21 -115 16 -105 -34 9 -47 19 -59 58 -68 19 -3 55 -29 87 -59 32 -30 70 -56 87 -59 45 -10 95 16 122 64 35 62 57 54 176 -61 40 -38 90 -76 116 -88 79 -33 98 -85 59 -162 -23 -43 -20 -59 11 -59 65 0 118 -74 140 -194 11 -57 10 -69 -1 -76 -8 -5 -118 -8 -246 -7 -215 2 -233 1 -253 -17 -28 -25 -27 -52 4 -72 19 -13 67 -18 217 -25 243 -11 241 -10 232 -52 -12 -56 -41 -102 -98 -154 -69 -63 -117 -78 -233 -70 -75 4 -96 10 -171 47 -116 58 -213 154 -268 265 -38 77 -39 82 -39 185 0 104 1 109 38 181 20 41 37 81 37 90 0 9 -44 50 -97 92 -124 94 -180 154 -189 202 -17 95 20 203 103 295 l47 52 115 -5 c64 -2 163 -12 221 -21z m-881 -72 c22 -15 57 -81 48 -90 -2 -2 -25 -8 -51 -13 -58 -11 -83 -32 -97 -84 -22 -83 10 -170 100 -271 33 -38 61 -75 61 -82 0 -17 -53 -28 -96 -19 -40 7 -106 62 -139 115 -71 113 -87 263 -37 361 34 68 78 99 141 99 27 0 56 -7 70 -16z m-64 -995 c269 -133 530 -432 689 -786 126 -281 203 -587 242 -956 22 -207 16 -635 -11 -789 -10 -60 -22 -108 -27 -108 -4 0 -8 33 -8 73 0 140 -45 608 -81 847 -78 518 -218 920 -430 1235 -84 125 -235 300 -368 428 -56 53 -99 97 -95 97 3 0 43 -19 89 -41z"/>
<path d="M4039 6311 c-80 -81 28 -172 131 -110 45 27 60 46 60 79 0 43 -28 60 -99 60 -56 0 -66 -3 -92 -29z"/>
<path d="M7640 5712 c-112 -56 -70 -222 56 -222 39 0 51 5 80 34 29 29 34 41 34 83 0 58 -19 90 -66 109 -44 18 -62 18 -104 -4z"/>
<path d="M5246 5704 c-178 -43 -329 -183 -393 -365 -34 -96 -43 -275 -19 -389 67 -317 357 -503 681 -435 156 33 291 131 353 257 36 74 51 149 54 276 l3 92 -247 0 -246 0 1 -92 2 -93 118 -3 118 -3 -6 -32 c-11 -51 -53 -115 -96 -146 -113 -83 -310 -58 -403 51 -67 77 -95 164 -96 288 -1 237 128 391 325 392 62 0 86 -5 131 -27 61 -30 107 -83 126 -147 12 -39 12 -40 52 -34 23 3 78 8 124 12 45 4 82 9 82 13 -1 26 -33 118 -56 161 -32 59 -126 150 -186 181 -107 55 -295 74 -422 43z"/>
<path d="M7960 5115 l0 -595 115 0 115 0 0 595 0 595 -115 0 -115 0 0 -595z"/>
<path d="M6387 5380 c-159 -28 -274 -118 -327 -257 -28 -72 -37 -214 -21 -295 42 -203 202 -328 419 -328 168 0 308 84 379 228 35 70 38 83 42 180 5 158 -19 245 -96 340 -79 97 -256 156 -396 132z m153 -212 c76 -39 110 -110 110 -229 0 -115 -36 -184 -115 -220 -75 -35 -176 -14 -223 46 -49 62 -65 187 -37 283 36 120 157 174 265 120z"/>
<path d="M8624 5379 c-159 -19 -254 -99 -288 -241 l-6 -28 105 0 c58 0 108 -1 113 -2 4 -2 8 9 10 24 10 83 145 113 211 47 47 -46 49 -129 4 -143 -10 -3 -73 -12 -140 -21 -251 -31 -342 -103 -343 -268 0 -78 19 -124 72 -173 61 -58 93 -69 203 -69 114 0 162 17 228 81 l37 36 0 -28 c0 -73 2 -74 111 -74 l99 0 0 308 c0 334 -5 374 -54 441 -66 90 -198 130 -362 110z m186 -537 c0 -47 -36 -119 -73 -146 -18 -14 -48 -21 -92 -24 -61 -4 -66 -3 -95 26 -31 32 -36 54 -20 96 14 37 59 55 168 70 53 8 100 14 105 15 4 0 7 -16 7 -37z"/>
<path d="M7340 5363 c-29 -11 -65 -37 -102 -75 l-58 -59 0 43 c0 87 -1 88 -101 88 l-89 0 0 -420 0 -420 115 0 114 0 3 253 c3 249 3 253 29 302 36 71 99 108 190 113 l69 4 0 94 0 94 -62 -1 c-35 0 -83 -8 -108 -16z"/>
<path d="M7580 4940 l0 -421 113 3 112 3 0 415 0 415 -112 3 -113 3 0 -421z"/>
<path d="M4887 4323 c-4 -3 -7 -51 -7 -105 l0 -98 170 0 170 0 0 -475 0 -475 120 0 120 0 0 475 0 475 165 0 165 0 0 105 0 105 -448 0 c-247 0 -452 -3 -455 -7z"/>
<path d="M7060 4007 c-54 -15 -106 -45 -139 -81 -14 -14 -28 -26 -33 -26 -4 0 -8 23 -8 50 l0 50 -100 0 -100 0 0 -572 0 -573 112 2 113 2 0 200 0 200 35 -34 c78 -76 213 -101 330 -61 77 27 168 119 199 201 96 255 16 544 -172 625 -63 28 -173 35 -237 17z m120 -195 c25 -13 44 -36 65 -77 26 -50 30 -69 30 -139 0 -102 -24 -174 -71 -215 -88 -78 -226 -57 -277 41 -24 48 -33 174 -18 250 16 74 46 118 101 146 52 27 110 24 170 -6z"/>
<path d="M7880 4005 c-240 -67 -353 -310 -270 -578 58 -186 217 -286 438 -275 110 5 179 30 244 86 33 30 98 136 88 144 -9 7 -166 78 -172 78 -3 0 -9 -11 -12 -24 -9 -35 -79 -94 -123 -102 -48 -9 -135 9 -172 36 -31 21 -68 88 -73 130 l-3 25 285 0 285 0 -3 70 c-7 192 -78 322 -207 386 -56 27 -78 32 -158 35 -62 3 -110 -1 -147 -11z m214 -179 c30 -19 62 -78 67 -121 l4 -30 -173 -3 -173 -2 7 27 c9 39 39 97 58 112 49 41 160 50 210 17z"/>
<path d="M5736 3978 c3 -13 74 -202 155 -422 82 -219 149 -406 149 -415 0 -9 -11 -36 -23 -60 -28 -56 -74 -81 -144 -81 l-53 0 0 -96 0 -97 103 5 c120 6 161 22 224 91 67 73 62 61 319 765 63 172 114 317 114 323 0 6 -44 9 -116 7 l-117 -3 -88 -260 c-49 -143 -92 -267 -95 -275 -3 -8 -49 109 -103 260 l-98 275 -117 3 -118 3 8 -23z"/>
<path d="M2585 3763 c-39 -111 -111 -251 -194 -376 -39 -59 -71 -115 -71 -125 0 -11 26 -31 78 -57 73 -38 78 -42 89 -85 6 -25 12 -84 12 -132 1 -115 9 -123 122 -132 93 -8 199 5 235 29 27 18 46 76 70 219 27 163 26 166 -141 470 -81 146 -153 266 -160 266 -7 0 -25 -35 -40 -77z"/>
</g>
</svg>
